# xmcd CD database file
#
# Track frame offsets:
#	150
#	12377
#	26510
#	41233
#	55316
#	69446
#	82980
#	96478
#	120359
#	135963
#	148719
#	164083
#	179048
#	193595
#	208885
#	224576
#
# Disc length: 3197 seconds
#
# Revision: 1
# Processed by: cddbd v1.5PL3 Copyright (c) Steve Scherf et al.
# Submitted via: CDex 1.50
#
DISCID=f40c7b10
DTITLE=Various Artist - 本物の魅力VOCAL Man　disk-1
DYEAR=1900
DGENRE=Jazz
TTITLE0=ネイチャーボーイ/ナットキングコール
TTITLE1=バラ色の人生/ビングクロスビー
TTITLE2=いつの日か/ルイアームストロング
TTITLE3=イフ/ペリーコモ
TTITLE4=ナイトアンドデイ/フランクシナトラ
TTITLE5=ライダースインザスカイ/ヴォーンモンロー
TTITLE6=アンティルザリアルシングカムズアロング/ファテレル
TTITLE7=ロッキンチェア/ルイアームストロング
TTITLE8=エヴリバディズサムバディズフール/ジミースコット
TTITLE9=ザッツマイディザイア/フランキーレイン
TTITLE10=リンダ/バディクラーク
TTITLE11=チークトゥチーク/フレッドアステア
TTITLE12=スゥイートロレイン/ナットキングコール
TTITLE13=夢路まどかに/ラリースチュワート
TTITLE14=枯葉/ビングクロスビー
TTITLE15=ソータイアド/ラスモーガン
EXTD=
EXTT0=
EXTT1=
EXTT2=
EXTT3=
EXTT4=
EXTT5=
EXTT6=
EXTT7=
EXTT8=
EXTT9=
EXTT10=
EXTT11=
EXTT12=
EXTT13=
EXTT14=
EXTT15=
PLAYORDER=
